:version 1.10
:name ASF
:units
  mass 1
  length 1
  angle deg
:documentation
  ASF file generated by Kaydara
:root
  axis xyz
  order  tx ty tz rx ry rz
  position 0 0 0
  orientation 0 0 0
:bonedata
  begin
    id 1
    name SpineDummy
    direction 0.999998 -0.00179978 1.38929e-006
    length 3.60008
    axis 0 0 0 xyz
  end
  begin
    id 2
    name Spine
    direction 0.964365 0.262802 0.0305839
    length 8.13928
    axis 1.33928 -1.75354 15.2838 xyz
    dof rx ry rz
  end
  begin
    id 3
    name Spine1
    direction 0.811168 0.572065 0.12144
    length 7.14954
    axis 2.2224 -6.9761 35.2157 xyz
    dof rx ry rz
  end
  begin
    id 4
    name Neck
    direction 0 0 0
    length 0
    axis 2.2224 -6.9761 35.2157 xyz
    dof rx ry rz
  end
  begin
    id 5
    name HeadDummy
    direction 0.810939 0.572387 0.121455
    length 3.55534
    axis 2.2224 -6.9761 35.2157 xyz
  end
  begin
    id 6
    name Head
    direction 0.998226 -0.000232542 0.0595419
    length 7.35666
    axis -3.03688 -3.41352 -0.0133467 xyz
    dof rx ry rz
  end
  begin
    id 7
    name R_ClavicleDummy
    direction 0.531669 -0.194489 -0.824319
    length 2.49392
    axis 2.2224 -6.9761 35.2157 xyz
  end
  begin
    id 8
    name R_Clavicle
    direction -0.155119 0.0480802 -0.986725
    length 4.485
    axis -54.2764 80.6538 162.779 xyz
    dof rx ry rz
  end
  begin
    id 9
    name R_UpperArm
    direction -0.955567 0.200068 -0.216484
    length 10.1122
    axis -72.9943 12.5026 168.175 xyz
    dof rx ry rz
  end
  begin
    id 10
    name R_Forearm
    direction -0.61433 0.385743 0.688332
    length 9.39148
    axis -117.015 -43.4982 147.875 xyz
    dof rx ry rz
  end
  begin
    id 11
    name R_Hand
    direction -0.699429 0.0170333 0.714499
    length 3.66324
    axis -45.0303 -36.7097 175.478 xyz
    dof rx ry rz
  end
  begin
    id 12
    name L_ClavicleDummy
    direction 0.40287 -0.36502 0.839319
    length 2.49392
    axis 2.2224 -6.9761 35.2157 xyz
  end
  begin
    id 13
    name L_Clavicle
    direction -0.231271 -0.0726419 0.970174
    length 4.485
    axis 18.4357 -75.9711 -162.563 xyz
    dof rx ry rz
  end
  begin
    id 14
    name L_UpperArm
    direction -0.917494 0.144359 0.370629
    length 10.1122
    axis 56.0417 -21.7544 171.058 xyz
    dof rx ry rz
  end
  begin
    id 15
    name L_Forearm
    direction -0.496786 0.615074 -0.612281
    length 9.39148
    axis 89.8094 37.7546 128.927 xyz
    dof rx ry rz
  end
  begin
    id 16
    name L_Hand
    direction -0.409932 0.64962 -0.640274
    length 3.66324
    axis -0.424369 32.133 128.52 xyz
    dof rx ry rz
  end
  begin
    id 17
    name L_ThighDummy
    direction -1.84081e-006 1.87549e-006 1
    length 3.13049
    axis 0 0 0 xyz
  end
  begin
    id 18
    name L_Thigh
    direction -0.947739 0.307978 0.083308
    length 17.9961
    axis 173.219 -4.77873 161.998 xyz
    dof rx ry rz
  end
  begin
    id 19
    name L_Calf
    direction -0.728814 -0.684427 0.0197583
    length 13.3367
    axis 167.331 -1.13214 -136.799 xyz
    dof rx ry rz
  end
  begin
    id 20
    name L_Foot
    direction -0.9028 0.418719 0.0981191
    length 5.8674
    axis 163.436 11.5135 -155.37 xyz
    dof rx ry rz
  end
  begin
    id 21
    name L_Toe0
    direction -0.35341 0.886259 0.299411
    length 4.75286
    axis 169.316 -17.4222 111.74 xyz
    dof rx ry rz
  end
  begin
    id 22
    name R_ThighDummy
    direction 9.32778e-007 -8.82053e-007 -1
    length 3.13049
    axis 0 0 0 xyz
  end
  begin
    id 23
    name R_Thigh
    direction -0.925064 0.37528 -0.0585023
    length 17.9961
    axis -178.698 3.35385 157.919 xyz
    dof rx ry rz
  end
  begin
    id 24
    name R_Calf
    direction -0.68969 -0.718776 -0.0876886
    length 13.3367
    axis -160.504 5.03065 -133.817 xyz
    dof rx ry rz
  end
  begin
    id 25
    name R_Foot
    direction -0.857405 0.418858 -0.299022
    length 5.8674
    axis -161.328 4.38911 -154.413 xyz
    dof rx ry rz
  end
  begin
    id 26
    name R_Toe0
    direction -0.100745 0.952789 -0.286433
    length 4.75286
    axis 171.683 16.6445 96.0359 xyz
    dof rx ry rz
  end
:hierarchy
  begin
    root SpineDummy L_ThighDummy R_ThighDummy
    SpineDummy Spine
    Spine Spine1
    Spine1 Neck
    Neck HeadDummy R_ClavicleDummy L_ClavicleDummy
    HeadDummy Head
    R_ClavicleDummy R_Clavicle
    R_Clavicle R_UpperArm
    R_UpperArm R_Forearm
    R_Forearm R_Hand
    L_ClavicleDummy L_Clavicle
    L_Clavicle L_UpperArm
    L_UpperArm L_Forearm
    L_Forearm L_Hand
    L_ThighDummy L_Thigh
    L_Thigh L_Calf
    L_Calf L_Foot
    L_Foot L_Toe0
    R_ThighDummy R_Thigh
    R_Thigh R_Calf
    R_Calf R_Foot
    R_Foot R_Toe0
  end

:SAMPLES-PER-SECOND 30
:FULLY-SPECIFIED
:DEGREES
137
root  -3.4706 28.9705 0.569479 -72.9122 -6.51573 90.8336
Spine  10.3441 27.5176 2.78814
Spine1  5.80334 -25.4772 -0.817715
Neck  3.97569e-016 0 -2.38542e-015
Head  -52.6926 4.37025 23.2795
R_Clavicle  -0.452179 5.90018 -1.4117
R_UpperArm  -17.4166 14.6553 -28.8894
R_Forearm  29.4433 -22.1136 19.7084
R_Hand  -0.353467 -1.01532 -3.12976
L_Clavicle  -0.393935 10.1296 2.12077
L_UpperArm  6.62033 -17.4389 -4.57671
L_Forearm  29.3226 5.26293 6.2156
L_Hand  -0.501752 3.63045 -6.07433
L_Thigh  -7.1826 -5.1551 -4.29697
L_Calf  1.39949 2.48276 -18.772
L_Foot  5.75249 4.99684 17.4411
L_Toe0  9.65291 -2.80339 9.58663
R_Thigh  -7.77025 1.18063 11.4459
R_Calf  -14.0451 3.44651 11.0071
R_Foot  2.06554 6.72257 -1.93622
R_Toe0  -1.82918 -0.273175 -17.3466
138
root  -3.36219 28.6567 0.875575 -77.2027 -7.28132 92.8548
Spine  9.88111 28.1762 2.11509
Spine1  5.38903 -22.0346 -1.00584
Neck  3.97569e-016 0 -2.38542e-015
Head  -45.575 1.41011 21.9959
R_Clavicle  -0.247072 5.55592 -0.60856
R_UpperArm  -15.3577 14.7051 -29.4258
R_Forearm  28.0267 -20.519 18.0919
R_Hand  0.0285702 0.550424 -0.987509
L_Clavicle  -0.403763 9.46927 2.38986
L_UpperArm  5.75505 -16.9588 -5.15714
L_Forearm  25.6151 5.60902 6.62302
L_Hand  -0.536505 3.68411 -6.46084
L_Thigh  -8.71218 -5.0759 -8.47515
L_Calf  -4.80197 1.74956 -13.1817
L_Foot  9.35424 7.01405 26.9072
L_Toe0  3.60769 -1.15922 8.66641
R_Thigh  -7.64644 4.15513 12.6785
R_Calf  -20.989 3.23196 10.356
R_Foot  1.29827 4.07787 -1.46286
R_Toe0  -1.78853 -0.27248 -17.3235
139
root  -3.39406 28.5304 1.19262 -78.0749 -7.62712 92.4573
Spine  6.55087 24.7705 -0.121319
Spine1  3.05658 -15.6154 -0.247182
Neck  3.97569e-016 0 -2.38542e-015
Head  -36.4035 0.25058 19.7865
R_Clavicle  0.00340611 5.05213 0.392436
R_UpperArm  -2.73619 11.5 -26.7205
R_Forearm  20.9102 -15.5462 13.3358
R_Hand  0.72558 4.11709 -0.472998
L_Clavicle  -0.320837 7.48267 1.4437
L_UpperArm  1.98045 -14.6236 -4.30652
L_Forearm  23.964 4.13833 4.90262
L_Hand  -0.680196 3.60815 -8.29593
L_Thigh  -8.5456 -6.31258 -9.24676
L_Calf  -7.51691 1.45263 -10.9512
L_Foot  10.6621 7.05101 30.9144
L_Toe0  1.74636 -0.335025 3.90367
R_Thigh  -8.0611 4.33607 13.2639
R_Calf  -20.0728 3.24069 10.3355
R_Foot  1.40311 4.13448 -2.70936
R_Toe0  -1.76631 -0.273716 -17.3431
140
root  -3.62086 28.542 1.42996 -77.7143 -7.83266 90.4678
Spine  2.50214 20.2915 -2.16789
Spine1  -0.0106577 -9.82116 1.00366
Neck  3.97569e-016 0 -2.38542e-015
Head  -26.6823 0.358544 19.0549
R_Clavicle  0.0551757 4.06751 0.559037
R_UpperArm  7.45667 7.83169 -21.7631
R_Forearm  18.6865 -10.2912 8.64927
R_Hand  0.849138 7.36714 -3.97852
L_Clavicle  -0.109746 4.92483 -0.273976
L_UpperArm  -0.585795 -12.7575 -4.37178
L_Forearm  25.5574 2.68916 3.21802
L_Hand  -0.777367 3.42473 -9.69575
L_Thigh  -8.24957 -8.54485 -8.57037
L_Calf  -6.36644 1.69112 -12.7034
L_Foot  9.71695 6.97888 28.0393
L_Toe0  3.66201 -0.801987 4.8051
R_Thigh  -7.54457 2.86129 13.6198
R_Calf  -12.5048 2.96855 9.37146
R_Foot  2.0781 6.24941 -4.71871
R_Toe0  -1.93585 -0.26864 -17.1941
141
root  -3.94162 28.4955 1.54129 -78.1515 -8.40662 88.4597
Spine  -0.710567 16.4607 -2.90284
Spine1  -2.63893 -4.62217 0.900774
Neck  3.97569e-016 0 -2.38542e-015
Head  -17.2082 -1.57303 20.8214
R_Clavicle  -0.0691898 2.78193 -0.0860347
R_UpperArm  10.4161 6.63913 -17.6588
R_Forearm  20.966 -10.296 8.65606
R_Hand  0.245664 8.01867 -9.28547
L_Clavicle  0.128581 4.02469 -2.24426
L_UpperArm  2.43707 -14.1948 -6.26852
L_Forearm  27.1128 4.14507 4.91211
L_Hand  -0.728736 2.97536 -9.57068
L_Thigh  -7.2347 -10.7953 -9.15613
L_Calf  -2.74816 1.91037 -14.3227
L_Foot  8.92471 7.1261 25.288
L_Toe0  7.08164 -1.63696 6.61167
R_Thigh  -3.76526 1.92849 14.6799
R_Calf  -8.87006 1.23404 3.89238
R_Foot  3.42712 11.4448 -4.14114
R_Toe0  -3.17444 -0.199186 -16.0957
142
root  -4.21704 28.2317 1.56635 -79.2231 -9.22543 86.8551
Spine  -3.32131 11.4997 -3.03664
Spine1  -4.75367 3.11935 -0.381988
Neck  3.97569e-016 0 -2.38542e-015
Head  -7.76723 -6.58019 22.4407
R_Clavicle  -0.063156 1.00417 -0.228051
R_UpperArm  6.65619 8.87876 -16.6457
R_Forearm  24.3108 -14.7903 12.6532
R_Hand  -0.0967412 8.4028 -12.1738
L_Clavicle  0.176835 6.19647 -4.02706
L_UpperArm  11.7046 -19.3359 -9.6843
L_Forearm  25.0057 8.37816 9.91156
L_Hand  -0.755889 2.90275 -10.0124
L_Thigh  -5.6424 -12.9306 -11.5608
L_Calf  0.158748 1.81758 -13.609
L_Foot  10.4918 7.97794 28.8628
L_Toe0  8.34215 -1.29449 2.65399
R_Thigh  2.83136 2.26179 15.5995
R_Calf  -11.344 -1.16815 -3.52865
R_Foot  4.08488 14.0164 -0.59109
R_Toe0  -5.07503 -0.029281 -14.5579
143
root  -4.4564 27.7793 1.57112 -79.9573 -9.43785 85.5021
Spine  -6.0819 4.4093 -3.71077
Spine1  -6.7925 14.0244 -0.853532
Neck  3.97569e-016 0 -2.38542e-015
Head  2.06805 -12.0582 21.5488
R_Clavicle  0.132363 -1.40518 0.578054
R_UpperArm  1.82523 12.1174 -17.7894
R_Forearm  26.7536 -17.8495 15.5042
R_Hand  -0.0134385 10.5406 -12.707
L_Clavicle  0.0195871 9.54855 -4.95318
L_UpperArm  22.6741 -25.2502 -14.1297
L_Forearm  20.9627 11.8798 14.1877
L_Hand  -0.965964 3.27588 -12.4033
L_Thigh  -5.75953 -14.8226 -13.7534
L_Calf  0.292546 1.59194 -11.8682
L_Foot  12.6822 8.17883 35.0454
L_Toe0  6.04919 -0.451761 -1.43416
R_Thigh  10.2215 3.62768 15.297
R_Calf  -10.7055 -2.19468 -6.76283
R_Foot  -0.0964853 0.746231 2.71109
R_Toe0  -4.71363 0.021229 -13.3687
144
root  -4.74834 27.414 1.58296 -80.9063 -8.89883 84.5823
Spine  -8.84902 -2.13956 -4.38582
Spine1  -8.76482 24.3068 -0.362575
Neck  3.97569e-016 0 -2.38542e-015
Head  11.9247 -15.7072 18.8924
R_Clavicle  0.230672 -3.82764 0.988618
R_UpperArm  4.6774 13.1441 -17.4626
R_Forearm  25.8122 -16.5521 14.2802
R_Hand  -0.0667231 12.774 -13.9616
L_Clavicle  -0.0814797 11.029 -5.08201
L_UpperArm  27.7765 -28.9902 -18.2642
L_Forearm  18.0644 12.3423 14.766
L_Hand  -1.29585 5.86394 -12.7424
L_Thigh  -9.09331 -16.0228 -14.5109
L_Calf  -1.43755 1.4076 -10.454
L_Foot  14.3096 8.61606 38.8734
L_Toe0  3.93731 -0.162306 -3.09527
R_Thigh  14.377 4.65386 15.3267
R_Calf  -5.96554 -2.08596 -6.44445
R_Foot  -5.31754 -14.5816 4.59043
R_Toe0  -0.850123 -0.106536 -10.3359
145
root  -5.10001 27.3351 1.54174 -83.5974 -8.53075 84.3091
Spine  -10.9028 -4.76728 -3.92387
Spine1  -10.6773 29.9223 -0.865317
Neck  3.97569e-016 0 -2.38542e-015
Head  20.5429 -17.5086 16.6679
R_Clavicle  0.186386 -5.79074 0.550185
R_UpperArm  13.0591 11.2406 -13.6771
R_Forearm  22.964 -12.0369 10.1835
R_Hand  -0.495564 13.5804 -16.6332
L_Clavicle  -0.0173224 10.1988 -5.16551
L_UpperArm  26.3286 -30.1879 -20.9481
L_Forearm  14.5905 10.2283 12.1514
L_Hand  -1.02494 14.1822 -4.98029
L_Thigh  -14.3057 -16.2207 -14.4854
L_Calf  -2.37807 1.29494 -9.62684
L_Foot  14.9254 9.45001 39.1419
L_Toe0  4.39471 -0.226183 -2.70234
R_Thigh  11.8417 5.23971 16.9378
R_Calf  -6.49998 -2.67253 -8.17712
R_Foot  -4.57187 -13.7533 2.65956
R_Toe0  -0.662035 -0.0851288 -8.21062
146
root  -5.46824 27.4386 1.35976 -88.2752 -8.87875 84.4694
Spine  -12.1094 -3.92411 -2.87355
Spine1  -12.4881 30.925 -2.45166
Neck  3.97569e-016 0 -2.38542e-015
Head  27.2298 -18.1931 16.3962
R_Clavicle  0.118131 -7.11422 -0.0896582
R_UpperArm  20.0487 7.66811 -8.33543
R_Forearm  20.6714 -7.25567 6.04674
R_Hand  -0.925775 14.081 -19.1153
L_Clavicle  0.159641 8.27083 -5.65977
L_UpperArm  24.8732 -29.9348 -22.8194
L_Forearm  10.4203 7.76156 9.17536
L_Hand  2.77069 25.2924 10.5828
L_Thigh  -19.5476 -15.8746 -14.4647
L_Calf  -1.60389 1.27615 -9.50348
L_Foot  14.3134 9.65395 37.1711
L_Toe0  6.09147 -0.479703 -1.25456
R_Thigh  5.92185 7.00774 17.7983
R_Calf  -13.1414 -3.17476 -9.83047
R_Foot  -3.31436 -12.1224 -0.930811
R_Toe0  -2.78823 0.217016 -7.1386
147
root  -5.78861 27.4829 1.04933 -93.612 -9.43089 84.8435
Spine  -13.173 -2.46839 -2.44547
Spine1  -13.983 30.4539 -3.28123
Neck  3.97569e-016 0 -2.38542e-015
Head  32.6867 -18.6329 17.8883
R_Clavicle  0.0756367 -7.47846 -0.463266
R_UpperArm  24.0345 4.00305 -4.24897
R_Forearm  19.5174 -4.00632 3.30838
R_Hand  -1.34972 15.2606 -21.4209
L_Clavicle  0.339448 6.35185 -6.00358
L_UpperArm  26.7987 -29.1255 -24.8275
L_Forearm  8.80955 6.84577 8.08672
L_Hand  6.108 31.3978 18.5994
L_Thigh  -24.0194 -15.7882 -14.247
L_Calf  -1.83799 1.36962 -10.1962
L_Foot  12.8476 8.73298 34.6064
L_Toe0  7.66809 -0.901667 0.89449
R_Thigh  2.73048 7.21595 20.1424
R_Calf  -19.2914 -3.91742 -12.184
R_Foot  0.563292 -0.391867 -5.87178
R_Toe0  -11.4119 1.27675 -9.66201
148
root  -6.00832 27.3805 0.735805 -98.4548 -9.77247 85.4597
Spine  -14.491 -1.89204 -2.45187
Spine1  -15.2497 31.111 -2.94193
Neck  3.97569e-016 0 -2.38542e-015
Head  38.0342 -19.4447 19.0761
R_Clavicle  0.0547045 -7.04643 -0.544224
R_UpperArm  26.0106 1.2175 -1.90252
R_Forearm  19.0006 -1.752 1.42773
R_Hand  -1.85536 16.0112 -23.9341
L_Clavicle  0.410506 5.07883 -5.68255
L_UpperArm  30.9543 -28.0306 -26.8654
L_Forearm  13.9946 7.11884 8.41047
L_Hand  0.915074 26.7062 4.43896
L_Thigh  -26.4042 -16.4104 -13.3006
L_Calf  -4.97364 1.56455 -11.6665
L_Foot  11.1226 7.16179 32.1227
L_Toe0  7.38989 -1.36115 4.22184
R_Thigh  4.28121 6.39296 22.7694
R_Calf  -12.8343 -3.61902 -11.2647
R_Foot  2.87709 8.79123 -8.89173
R_Toe0  -10.761 1.24608 -9.26271
